<svg width="140" height="48" viewBox="0 0 140 48" fill="none" xmlns="http://www.w3.org/2000/svg">
<rect y="1" width="46" height="46" rx="23" fill="#FD853A"/>
<path d="M35.1944 27.5953C34.1017 28.7882 32.7602 29.526 31.1371 29.5885C28.0722 29.7063 25.6997 27.9061 25.4059 25.6538C24.8212 21.1703 27.7404 18.4112 30.9375 18.4112C32.5643 18.4112 33.7753 19.0328 34.8504 20.0293L37.6553 16.8705C36.1332 15.3661 33.7922 14 30.9375 14C28.1735 14 25.6862 14.914 23.8 16.6215V14.4076H9.90002V18.6873H18.6941V25.4952C18.6941 28.5861 17.517 29.5885 15.2262 29.5885C13.7383 29.5885 12.2159 28.7186 10.9276 27.1089L8 30.2749C9.96306 33.0211 12.8978 34 15.3954 34C19.2608 34 21.5638 32.5884 22.7551 30.4611C24.6941 32.801 27.5364 34 30.6114 34C33.6424 34 36.1623 32.8625 38 30.6852L35.1944 27.5953Z" fill="white"/>
<g clip-path="url(#clip0_256_559)">
<path d="M56 30.3806L58.3805 27.7838C59.4255 29.1062 60.6607 29.8209 61.8701 29.8221C63.7303 29.8221 64.6877 29.0011 64.6893 26.4619L64.6956 18.0812L57.5534 18.074L57.5562 14.5557L68.8439 14.5645L68.8348 26.8072C68.832 30.441 67.0642 33.447 62.0049 33.4442C59.9759 33.443 57.5931 32.6382 56 30.3806Z" fill="white"/>
<path d="M71.8439 24.0944C71.8486 17.9495 75.6878 14.3861 80.5866 14.3901C82.9049 14.3901 84.8059 15.5145 86.0419 16.7519L83.7609 19.3455C82.889 18.5254 81.9055 18.0139 80.5839 18.0127C77.9878 18.0127 76.0904 20.2469 76.0881 23.9596C76.0849 27.7696 77.9787 29.9821 80.7376 29.9861C82.0565 29.9861 83.1454 29.331 84.0335 28.3523L86.3097 30.8915C84.817 32.6799 82.7698 33.6119 80.3081 33.6099C75.7623 33.6042 71.8391 30.3483 71.8439 24.0944Z" fill="white"/>
<path d="M103.75 33.2742L99.6202 25.8544C101.573 24.9607 102.88 23.2343 102.882 20.5112C102.886 16.1015 99.6991 14.7341 95.825 14.7309L89.3236 14.7261L89.3098 33.2617L93.4568 33.2649L93.4616 26.5973H95.6356L99.1201 33.2673L103.75 33.2742ZM93.4679 18.0589H95.4854C97.6602 18.0589 98.8265 18.6766 98.8249 20.5064C98.8249 22.3208 97.6562 23.2681 95.4814 23.2665H93.464L93.4679 18.0589Z" fill="white"/>
<path d="M106.765 14.7275L118.887 14.7368L118.884 18.2539L110.902 18.2479L110.899 21.9654L117.681 21.9706L117.679 25.4877L110.896 25.4825L110.893 29.7481L119.157 29.7545L119.154 33.2728L106.75 33.2632L106.765 14.7275Z" fill="white"/>
<path d="M134.12 33.2681L138.508 33.2717L132.828 14.7316L127.867 14.728L122.157 33.2592L126.393 33.2624L127.512 28.8548L133.016 28.8588L134.12 33.2681ZM128.342 25.5868L128.778 23.8797C129.243 22.0286 129.753 19.8588 130.202 17.9031H130.314C130.753 19.8596 131.308 22.0314 131.77 23.8822L132.198 25.59L128.342 25.5868Z" fill="white"/>
</g>
<defs>
<clipPath id="clip0_256_559">
<rect width="82.5084" height="19.2197" fill="white" transform="translate(56 14.3901)"/>
</clipPath>
</defs>
</svg>
