<svg width="139" height="46" viewBox="0 0 139 46" fill="none" xmlns="http://www.w3.org/2000/svg">
<rect width="46" height="46" rx="23" fill="#FD853A"/>
<path d="M35.1944 26.5953C34.1017 27.7882 32.7602 28.526 31.1371 28.5885C28.0722 28.7063 25.6997 26.9061 25.4059 24.6538C24.8212 20.1703 27.7404 17.4112 30.9375 17.4112C32.5643 17.4112 33.7753 18.0328 34.8504 19.0293L37.6553 15.8705C36.1332 14.3661 33.7922 13 30.9375 13C28.1735 13 25.6862 13.914 23.8 15.6215V13.4076H9.90002V17.6873H18.6941V24.4952C18.6941 27.5861 17.517 28.5885 15.2262 28.5885C13.7383 28.5885 12.2159 27.7186 10.9276 26.1089L8 29.2749C9.96306 32.0211 12.8978 33 15.3954 33C19.2608 33 21.5638 31.5884 22.7551 29.4611C24.6941 31.801 27.5364 33 30.6114 33C33.6424 33 36.1623 31.8625 38 29.6852L35.1944 26.5953Z" fill="white"/>
<g clip-path="url(#clip0_4_580)">
<path d="M56 29.3806L58.3805 26.7838C59.4255 28.1062 60.6607 28.8209 61.8701 28.8221C63.7303 28.8221 64.6877 28.0011 64.6893 25.4619L64.6956 17.0812L57.5534 17.074L57.5562 13.5557L68.8439 13.5645L68.8348 25.8072C68.832 29.441 67.0642 32.447 62.0049 32.4442C59.9759 32.443 57.5931 31.6382 56 29.3806Z" fill="white"/>
<path d="M71.8439 23.0944C71.8486 16.9495 75.6878 13.3861 80.5867 13.3901C82.9049 13.3901 84.8059 14.5145 86.0419 15.7519L83.7609 18.3455C82.8891 17.5254 81.9055 17.0139 80.5839 17.0127C77.9878 17.0127 76.0904 19.2469 76.0881 22.9596C76.0849 26.7696 77.9787 28.9821 80.7376 28.9861C82.0565 28.9861 83.1455 28.331 84.0335 27.3523L86.3098 29.8915C84.817 31.6799 82.7698 32.6119 80.3081 32.6099C75.7623 32.6042 71.8391 29.3483 71.8439 23.0944Z" fill="white"/>
<path d="M103.75 32.2742L99.6202 24.8544C101.573 23.9607 102.88 22.2343 102.882 19.5112C102.886 15.1015 99.6991 13.7341 95.825 13.7309L89.3236 13.7261L89.3098 32.2617L93.4569 32.2649L93.4616 25.5973H95.6356L99.1201 32.2673L103.75 32.2742ZM93.468 17.0589H95.4854C97.6602 17.0589 98.8265 17.6766 98.8249 19.5064C98.8249 21.3208 97.6563 22.2681 95.4815 22.2665H93.464L93.468 17.0589Z" fill="white"/>
<path d="M106.765 13.7275L118.887 13.7368L118.884 17.2539L110.902 17.2479L110.899 20.9654L117.681 20.9706L117.679 24.4877L110.896 24.4825L110.893 28.7481L119.157 28.7545L119.154 32.2728L106.75 32.2632L106.765 13.7275Z" fill="white"/>
<path d="M134.12 32.2681L138.508 32.2717L132.828 13.7316L127.867 13.728L122.157 32.2592L126.393 32.2624L127.512 27.8548L133.016 27.8588L134.12 32.2681ZM128.342 24.5868L128.778 22.8797C129.243 21.0286 129.753 18.8588 130.202 16.9031H130.314C130.753 18.8596 131.308 21.0314 131.77 22.8822L132.198 24.59L128.342 24.5868Z" fill="white"/>
</g>
<defs>
<clipPath id="clip0_4_580">
<rect width="82.5084" height="19.2197" fill="white" transform="translate(56 13.3901)"/>
</clipPath>
</defs>
</svg>
